<svg xmlns="http://www.w3.org/2000/svg" viewBox="0 0 1200 520">
  <defs>
    <linearGradient id="g3" x1="0" y1="0" x2="1" y2="1">
      <stop offset="0%" stop-color="#08b6d4"/>
      <stop offset="100%" stop-color="#22c55e"/>
    </linearGradient>
  </defs>
  <rect width="1200" height="520" fill="#f8fafc"/>
  <rect x="60" y="50" width="1080" height="420" rx="24" fill="url(#g3)" opacity="0.1"/>
  <rect x="140" y="120" width="420" height="280" rx="20" fill="#ffffff" stroke="#cbd5e1"/>
  <rect x="640" y="120" width="420" height="280" rx="20" fill="#ffffff" stroke="#cbd5e1"/>
  <circle cx="260" cy="220" r="36" fill="#0f172a" opacity="0.85"/>
  <rect x="220" y="270" width="80" height="90" rx="20" fill="#0f172a" opacity="0.85"/>
  <rect x="320" y="205" width="180" height="18" rx="9" fill="#0f172a" opacity="0.14"/>
  <rect x="320" y="235" width="150" height="14" rx="7" fill="#0f172a" opacity="0.12"/>
  <rect x="320" y="262" width="170" height="14" rx="7" fill="#0f172a" opacity="0.12"/>
  <circle cx="760" cy="220" r="34" fill="#08b6d4" opacity="0.9"/>
  <rect x="725" y="268" width="70" height="86" rx="18" fill="#08b6d4" opacity="0.9"/>
  <path d="M818 236h180M818 268h140M818 300h160" stroke="#0f172a" stroke-width="12" opacity="0.12" stroke-linecap="round"/>
</svg>
