<svg xmlns="http://www.w3.org/2000/svg" viewBox="0 0 1200 520">
  <defs>
    <linearGradient id="g2" x1="0" y1="0" x2="1" y2="1">
      <stop offset="0%" stop-color="#08b6d4"/>
      <stop offset="100%" stop-color="#22c55e"/>
    </linearGradient>
  </defs>
  <rect width="1200" height="520" fill="#f8fafc"/>
  <rect x="60" y="50" width="1080" height="420" rx="24" fill="url(#g2)" opacity="0.12"/>
  <rect x="140" y="120" width="260" height="280" rx="18" fill="#ffffff" stroke="#cbd5e1"/>
  <rect x="470" y="120" width="260" height="280" rx="18" fill="#ffffff" stroke="#cbd5e1"/>
  <rect x="800" y="120" width="260" height="280" rx="18" fill="#ffffff" stroke="#cbd5e1"/>
  <rect x="180" y="160" width="180" height="14" rx="7" fill="#08b6d4"/>
  <rect x="510" y="160" width="180" height="14" rx="7" fill="#08b6d4"/>
  <rect x="840" y="160" width="180" height="14" rx="7" fill="#08b6d4"/>
  <rect x="180" y="200" width="180" height="120" rx="12" fill="#0f172a" opacity="0.08"/>
  <circle cx="600" cy="260" r="56" fill="#22c55e" opacity="0.22"/>
  <path d="M560 260h80M600 220v80" stroke="#0f172a" stroke-width="8" stroke-linecap="round"/>
  <rect x="840" y="200" width="180" height="120" rx="12" fill="#0f172a" opacity="0.08"/>
</svg>
