<svg xmlns="http://www.w3.org/2000/svg" viewBox="0 0 1200 520">
  <defs>
    <linearGradient id="g1" x1="0" y1="0" x2="1" y2="1">
      <stop offset="0%" stop-color="#08b6d4"/>
      <stop offset="100%" stop-color="#22c55e"/>
    </linearGradient>
  </defs>
  <rect width="1200" height="520" fill="#f8fafc"/>
  <rect x="40" y="40" width="1120" height="440" rx="24" fill="url(#g1)" opacity="0.12"/>
  <circle cx="250" cy="260" r="110" fill="#08b6d4" opacity="0.2"/>
  <circle cx="860" cy="260" r="90" fill="#22c55e" opacity="0.2"/>
  <rect x="500" y="120" width="200" height="280" rx="24" fill="#ffffff" stroke="#cbd5e1"/>
  <circle cx="600" cy="270" r="48" fill="#08b6d4" opacity="0.2"/>
  <path d="M560 180v135a30 30 0 1 0 16 26V235h76v78a30 30 0 1 0 16 26V180z" fill="#0f172a"/>
  <rect x="120" y="170" width="280" height="22" rx="11" fill="#0f172a" opacity="0.14"/>
  <rect x="120" y="210" width="220" height="18" rx="9" fill="#0f172a" opacity="0.12"/>
  <rect x="120" y="242" width="180" height="18" rx="9" fill="#0f172a" opacity="0.12"/>
  <rect x="800" y="170" width="260" height="22" rx="11" fill="#0f172a" opacity="0.14"/>
  <rect x="800" y="210" width="200" height="18" rx="9" fill="#0f172a" opacity="0.12"/>
  <rect x="800" y="242" width="170" height="18" rx="9" fill="#0f172a" opacity="0.12"/>
</svg>
