<svg xmlns="http://www.w3.org/2000/svg" viewBox="0 0 1200 700">
  <defs>
    <linearGradient id="bg" x1="0" y1="0" x2="1" y2="1">
      <stop offset="0%" stop-color="#42b883"/>
      <stop offset="100%" stop-color="#35495e"/>
    </linearGradient>
    <linearGradient id="card" x1="0" y1="0" x2="1" y2="1">
      <stop offset="0%" stop-color="#ffffff" stop-opacity="0.95"/>
      <stop offset="100%" stop-color="#f3f8ff" stop-opacity="0.95"/>
    </linearGradient>
  </defs>
  <rect width="1200" height="700" fill="url(#bg)"/>
  <rect x="80" y="70" width="1040" height="560" rx="26" fill="#0f172a" opacity="0.18"/>
  <rect x="100" y="90" width="1000" height="520" rx="24" fill="url(#card)"/>
  <rect x="130" y="120" width="940" height="70" rx="16" fill="#35495e"/>
  <circle cx="170" cy="155" r="11" fill="#42b883"/>
  <rect x="200" y="141" width="130" height="28" rx="8" fill="#ffffff" opacity="0.9"/>
  <rect x="740" y="141" width="100" height="28" rx="8" fill="#42b883"/>
  <rect x="855" y="141" width="100" height="28" rx="8" fill="#42b883"/>
  <rect x="970" y="141" width="70" height="28" rx="8" fill="#42b883"/>
  <rect x="130" y="220" width="430" height="350" rx="18" fill="#ffffff"/>
  <rect x="590" y="220" width="480" height="160" rx="18" fill="#ffffff"/>
  <rect x="590" y="410" width="480" height="160" rx="18" fill="#ffffff"/>
  <rect x="160" y="260" width="300" height="16" rx="8" fill="#42b883"/>
  <rect x="160" y="290" width="360" height="12" rx="6" fill="#cbd5e1"/>
  <rect x="160" y="314" width="360" height="12" rx="6" fill="#cbd5e1"/>
  <rect x="160" y="338" width="240" height="12" rx="6" fill="#cbd5e1"/>
  <rect x="160" y="380" width="170" height="38" rx="10" fill="#42b883"/>
  <rect x="620" y="252" width="220" height="14" rx="7" fill="#42b883"/>
  <rect x="620" y="278" width="420" height="10" rx="5" fill="#cbd5e1"/>
  <rect x="620" y="298" width="420" height="10" rx="5" fill="#cbd5e1"/>
  <rect x="620" y="442" width="220" height="14" rx="7" fill="#42b883"/>
  <rect x="620" y="468" width="420" height="10" rx="5" fill="#cbd5e1"/>
  <rect x="620" y="488" width="420" height="10" rx="5" fill="#cbd5e1"/>
</svg>
