<svg xmlns="http://www.w3.org/2000/svg" viewBox="0 0 1200 700">
  <rect width="1200" height="700" fill="#f8fafc"/>
  <rect x="60" y="60" width="1080" height="580" rx="24" fill="#ffffff" stroke="#e2e8f0" stroke-width="2"/>
  <rect x="100" y="110" width="420" height="460" rx="18" fill="#ffffff" stroke="#cbd5e1"/>
  <rect x="560" y="110" width="540" height="460" rx="18" fill="#0f172a"/>
  <rect x="130" y="150" width="230" height="16" rx="8" fill="#42b883"/>
  <rect x="130" y="185" width="350" height="42" rx="10" fill="#f1f5f9"/>
  <rect x="130" y="245" width="160" height="12" rx="6" fill="#94a3b8"/>
  <rect x="130" y="270" width="350" height="42" rx="10" fill="#f1f5f9"/>
  <rect x="130" y="330" width="210" height="12" rx="6" fill="#94a3b8"/>
  <rect x="130" y="355" width="350" height="120" rx="10" fill="#f1f5f9"/>
  <rect x="130" y="495" width="170" height="42" rx="10" fill="#42b883"/>
  <rect x="590" y="145" width="200" height="14" rx="7" fill="#86efac"/>
  <rect x="590" y="180" width="480" height="10" rx="5" fill="#334155"/>
  <rect x="590" y="205" width="470" height="10" rx="5" fill="#334155"/>
  <rect x="590" y="230" width="500" height="10" rx="5" fill="#334155"/>
  <rect x="590" y="265" width="480" height="10" rx="5" fill="#334155"/>
  <rect x="590" y="290" width="500" height="10" rx="5" fill="#334155"/>
  <rect x="590" y="315" width="420" height="10" rx="5" fill="#334155"/>
</svg>
